{
	"asset":
	{
		"version": "2.0",
		"generator": "Unreal Engine 5.7.4"
	},
	"scene": 0,
	"accessors": [
		{
			"bufferView": 0,
			"count": 276,
			"type": "SCALAR",
			"componentType": 5121
		},
		{
			"bufferView": 1,
			"count": 94,
			"type": "VEC3",
			"componentType": 5126,
			"min": [
				-0.25,
				-0.270667881,
				-5.01292706
			],
			"max": [
				0.25,
				0.250000387,
				-0.0129267471
			]
		},
		{
			"bufferView": 2,
			"count": 94,
			"type": "VEC3",
			"componentType": 5126
		},
		{
			"bufferView": 3,
			"count": 94,
			"type": "VEC4",
			"componentType": 5126
		},
		{
			"bufferView": 4,
			"count": 94,
			"type": "VEC2",
			"componentType": 5126
		},
		{
			"bufferView": 5,
			"count": 94,
			"type": "VEC2",
			"componentType": 5126
		}
	],
	"buffers": [
		{
			"uri": "SM_beam_02.bin",
			"byteLength": 5540
		}
	],
	"bufferViews": [
		{
			"buffer": 0,
			"byteLength": 276,
			"target": 34963
		},
		{
			"buffer": 0,
			"byteLength": 1128,
			"byteOffset": 276,
			"target": 34962
		},
		{
			"buffer": 0,
			"byteLength": 1128,
			"byteOffset": 1404,
			"target": 34962
		},
		{
			"buffer": 0,
			"byteLength": 1504,
			"byteOffset": 2532,
			"target": 34962
		},
		{
			"buffer": 0,
			"byteLength": 752,
			"byteOffset": 4036,
			"target": 34962
		},
		{
			"buffer": 0,
			"byteLength": 752,
			"byteOffset": 4788,
			"target": 34962
		}
	],
	"images": [
		{
			"uri": "MI_market_trim_SM_beam_02_BaseColor.png"
		},
		{
			"uri": "MI_market_trim_SM_beam_02_MetallicRoughness.png"
		},
		{
			"uri": "MI_market_trim_SM_beam_02_Normal.png"
		},
		{
			"uri": "MI_market_trim_SM_beam_02_Occlusion.png"
		}
	],
	"materials": [
		{
			"name": "MI_market_trim_SM_beam_02",
			"pbrMetallicRoughness":
			{
				"baseColorTexture":
				{
					"index": 0,
					"texCoord": 1
				},
				"metallicRoughnessTexture":
				{
					"index": 1,
					"texCoord": 1
				}
			},
			"normalTexture":
			{
				"index": 2,
				"texCoord": 1
			},
			"occlusionTexture":
			{
				"index": 3,
				"texCoord": 1
			}
		}
	],
	"meshes": [
		{
			"name": "SM_beam_02",
			"primitives": [
				{
					"attributes":
					{
						"POSITION": 1,
						"NORMAL": 2,
						"TANGENT": 3,
						"TEXCOORD_0": 4,
						"TEXCOORD_1": 5
					},
					"indices": 0,
					"material": 0
				}
			]
		}
	],
	"nodes": [
		{
			"mesh": 0
		}
	],
	"samplers": [
		{
			"minFilter": 9987,
			"magFilter": 9729
		}
	],
	"scenes": [
		{
			"nodes": [
				0
			]
		}
	],
	"textures": [
		{
			"name": "MI_market_trim_SM_beam_02_BaseColor",
			"sampler": 0,
			"source": 0
		},
		{
			"name": "MI_market_trim_SM_beam_02_MetallicRoughness",
			"sampler": 0,
			"source": 1
		},
		{
			"name": "MI_market_trim_SM_beam_02_Normal",
			"sampler": 0,
			"source": 2
		},
		{
			"name": "MI_market_trim_SM_beam_02_Occlusion",
			"sampler": 0,
			"source": 3
		}
	]
}