{
	"asset":
	{
		"version": "2.0",
		"generator": "Unreal Engine 5.7.4"
	},
	"scene": 0,
	"accessors": [
		{
			"bufferView": 0,
			"count": 792,
			"type": "SCALAR",
			"componentType": 5123
		},
		{
			"bufferView": 1,
			"count": 422,
			"type": "VEC3",
			"componentType": 5126,
			"min": [
				-1.52103043,
				2.83635984e-07,
				-0.0858667269
			],
			"max": [
				0.0884949341,
				3.58520794,
				4.75823545
			]
		},
		{
			"bufferView": 2,
			"count": 422,
			"type": "VEC3",
			"componentType": 5126
		},
		{
			"bufferView": 3,
			"count": 422,
			"type": "VEC4",
			"componentType": 5126
		},
		{
			"bufferView": 4,
			"count": 422,
			"type": "VEC2",
			"componentType": 5126
		},
		{
			"bufferView": 5,
			"count": 422,
			"type": "VEC2",
			"componentType": 5126
		}
	],
	"buffers": [
		{
			"uri": "SM_construction_block_03.bin",
			"byteLength": 25216
		}
	],
	"bufferViews": [
		{
			"buffer": 0,
			"byteLength": 1584,
			"target": 34963
		},
		{
			"buffer": 0,
			"byteLength": 5064,
			"byteOffset": 1584,
			"target": 34962
		},
		{
			"buffer": 0,
			"byteLength": 5064,
			"byteOffset": 6648,
			"target": 34962
		},
		{
			"buffer": 0,
			"byteLength": 6752,
			"byteOffset": 11712,
			"target": 34962
		},
		{
			"buffer": 0,
			"byteLength": 3376,
			"byteOffset": 18464,
			"target": 34962
		},
		{
			"buffer": 0,
			"byteLength": 3376,
			"byteOffset": 21840,
			"target": 34962
		}
	],
	"images": [
		{
			"uri": "MI_block_constrruction_SM_construction_block_03_BaseColor.png"
		},
		{
			"uri": "MI_block_constrruction_SM_construction_block_03_MetallicRoughness.png"
		},
		{
			"uri": "MI_block_constrruction_SM_construction_block_03_Normal.png"
		},
		{
			"uri": "MI_block_constrruction_SM_construction_block_03_Occlusion.png"
		}
	],
	"materials": [
		{
			"name": "MI_block_constrruction_SM_construction_block_03",
			"pbrMetallicRoughness":
			{
				"baseColorTexture":
				{
					"index": 0,
					"texCoord": 1
				},
				"metallicRoughnessTexture":
				{
					"index": 1,
					"texCoord": 1
				}
			},
			"normalTexture":
			{
				"index": 2,
				"texCoord": 1
			},
			"occlusionTexture":
			{
				"index": 3,
				"texCoord": 1
			}
		}
	],
	"meshes": [
		{
			"name": "SM_construction_block_03",
			"primitives": [
				{
					"attributes":
					{
						"POSITION": 1,
						"NORMAL": 2,
						"TANGENT": 3,
						"TEXCOORD_0": 4,
						"TEXCOORD_1": 5
					},
					"indices": 0,
					"material": 0
				}
			]
		}
	],
	"nodes": [
		{
			"mesh": 0
		}
	],
	"samplers": [
		{
			"minFilter": 9987,
			"magFilter": 9729
		}
	],
	"scenes": [
		{
			"nodes": [
				0
			]
		}
	],
	"textures": [
		{
			"name": "MI_block_constrruction_SM_construction_block_03_BaseColor",
			"sampler": 0,
			"source": 0
		},
		{
			"name": "MI_block_constrruction_SM_construction_block_03_MetallicRoughness",
			"sampler": 0,
			"source": 1
		},
		{
			"name": "MI_block_constrruction_SM_construction_block_03_Normal",
			"sampler": 0,
			"source": 2
		},
		{
			"name": "MI_block_constrruction_SM_construction_block_03_Occlusion",
			"sampler": 0,
			"source": 3
		}
	]
}