{
	"asset":
	{
		"version": "2.0",
		"generator": "Unreal Engine 5.7.4"
	},
	"scene": 0,
	"accessors": [
		{
			"bufferView": 0,
			"count": 2382,
			"type": "SCALAR",
			"componentType": 5123
		},
		{
			"bufferView": 1,
			"count": 851,
			"type": "VEC3",
			"componentType": 5126,
			"min": [
				-1.29816985,
				-0.0656230226,
				-1.29816973
			],
			"max": [
				1.29816985,
				12.976696,
				1.29816985
			]
		},
		{
			"bufferView": 2,
			"count": 851,
			"type": "VEC3",
			"componentType": 5126
		},
		{
			"bufferView": 3,
			"count": 851,
			"type": "VEC4",
			"componentType": 5126
		},
		{
			"bufferView": 4,
			"count": 851,
			"type": "VEC2",
			"componentType": 5126
		},
		{
			"bufferView": 5,
			"count": 851,
			"type": "VEC2",
			"componentType": 5126
		}
	],
	"buffers": [
		{
			"uri": "SM_temple_column.bin",
			"byteLength": 52420
		}
	],
	"bufferViews": [
		{
			"buffer": 0,
			"byteLength": 4764,
			"target": 34963
		},
		{
			"buffer": 0,
			"byteLength": 10212,
			"byteOffset": 4764,
			"target": 34962
		},
		{
			"buffer": 0,
			"byteLength": 10212,
			"byteOffset": 14976,
			"target": 34962
		},
		{
			"buffer": 0,
			"byteLength": 13616,
			"byteOffset": 25188,
			"target": 34962
		},
		{
			"buffer": 0,
			"byteLength": 6808,
			"byteOffset": 38804,
			"target": 34962
		},
		{
			"buffer": 0,
			"byteLength": 6808,
			"byteOffset": 45612,
			"target": 34962
		}
	],
	"images": [
		{
			"uri": "MI_trim_SM_temple_column_BaseColor.png"
		},
		{
			"uri": "MI_trim_SM_temple_column_MetallicRoughness.png"
		},
		{
			"uri": "MI_trim_SM_temple_column_Normal.png"
		},
		{
			"uri": "MI_trim_SM_temple_column_Occlusion.png"
		}
	],
	"materials": [
		{
			"name": "MI_trim_SM_temple_column",
			"pbrMetallicRoughness":
			{
				"baseColorTexture":
				{
					"index": 0,
					"texCoord": 1
				},
				"metallicRoughnessTexture":
				{
					"index": 1,
					"texCoord": 1
				}
			},
			"normalTexture":
			{
				"index": 2,
				"texCoord": 1
			},
			"occlusionTexture":
			{
				"index": 3,
				"texCoord": 1
			}
		}
	],
	"meshes": [
		{
			"name": "SM_temple_column",
			"primitives": [
				{
					"attributes":
					{
						"POSITION": 1,
						"NORMAL": 2,
						"TANGENT": 3,
						"TEXCOORD_0": 4,
						"TEXCOORD_1": 5
					},
					"indices": 0,
					"material": 0
				}
			]
		}
	],
	"nodes": [
		{
			"mesh": 0
		}
	],
	"samplers": [
		{
			"minFilter": 9987,
			"magFilter": 9729
		}
	],
	"scenes": [
		{
			"nodes": [
				0
			]
		}
	],
	"textures": [
		{
			"name": "MI_trim_SM_temple_column_BaseColor",
			"sampler": 0,
			"source": 0
		},
		{
			"name": "MI_trim_SM_temple_column_MetallicRoughness",
			"sampler": 0,
			"source": 1
		},
		{
			"name": "MI_trim_SM_temple_column_Normal",
			"sampler": 0,
			"source": 2
		},
		{
			"name": "MI_trim_SM_temple_column_Occlusion",
			"sampler": 0,
			"source": 3
		}
	]
}